<?xml version="1.0" encoding="utf-8"?>
<!-- Generator: Adobe Illustrator 16.0.0, SVG Export Plug-In . SVG Version: 6.00 Build 0)  -->
<!DOCTYPE svg PUBLIC "-//W3C//DTD SVG 1.1//EN" "http://www.w3.org/Graphics/SVG/1.1/DTD/svg11.dtd">
<svg version="1.1" id="Layer_1" xmlns="http://www.w3.org/2000/svg" xmlns:xlink="http://www.w3.org/1999/xlink" x="0px" y="0px"
	 width="200px" height="30px" viewBox="0 0 200 30" enable-background="new 0 0 200 30" xml:space="preserve">
<g>
	<g>
		<path fill="#103C54" d="M14.975,6.245c-3.932,0.212-6.927,2.572-7.974,6.38c-0.994,3.615,1.248,7.918,4.709,9.276
			c3.79,1.487,7.864,0.183,10.427-2.955c2.151-2.632-6.344-4.931-7.181-5.2c0.06,0.457,0.12,0.914,0.179,1.371
			c1.953-1.01,3.775-2.095,5.85-2.851c0.563-0.205,1.471-0.952,1.177-1.688C21.046,7.779,17.793,6.413,14.975,6.245
			c-0.967-0.058-0.961,1.442,0,1.5c0.838,0.05,7.474,2.39,4.511,3.477c-1.819,0.668-3.393,1.714-5.107,2.601
			c-0.607,0.313-0.405,1.183,0.179,1.371c1.004,0.322,7.209,2.327,5.87,3.321c-2.477,1.837-4.34,3.118-7.599,2.223
			C5.417,18.7,8.013,8.12,14.975,7.745C15.937,7.693,15.942,6.193,14.975,6.245z"/>
	</g>
</g>
<g>
	<g>
		<path fill="#103C54" d="M159.998,12.417c-1.373,0.085-2.53,1.025-2.442,2.489c0.088,1.47,1.389,2.369,2.782,2.354
			c1.437-0.016,2.908-0.951,2.883-2.51c-0.025-1.57-1.587-2.383-2.973-2.417c-0.968-0.023-0.966,1.477,0,1.5
			c0.564,0.014,1.411,0.22,1.473,0.917c0.064,0.728-0.814,0.972-1.383,1.01c-1.349,0.09-1.828-1.751-0.34-1.844
			C160.959,13.857,160.965,12.357,159.998,12.417L159.998,12.417z"/>
	</g>
</g>
<g>
	<g>
		<path fill="#103C54" d="M109.327,12.417c-1.373,0.085-2.53,1.025-2.442,2.489c0.088,1.47,1.389,2.369,2.782,2.354
			c1.437-0.016,2.908-0.951,2.883-2.51c-0.025-1.57-1.587-2.383-2.973-2.417c-0.968-0.023-0.966,1.477,0,1.5
			c0.564,0.014,1.411,0.22,1.473,0.917c0.064,0.728-0.814,0.972-1.383,1.01c-1.349,0.09-1.828-1.751-0.34-1.844
			C110.288,13.857,110.294,12.357,109.327,12.417L109.327,12.417z"/>
	</g>
</g>
<g>
	<g>
		<path fill="#103C54" d="M83.992,12.417c-1.374,0.085-2.531,1.025-2.443,2.489c0.088,1.47,1.389,2.369,2.783,2.354
			c1.436-0.016,2.908-0.951,2.883-2.51c-0.025-1.57-1.587-2.383-2.973-2.417c-0.968-0.023-0.965,1.477,0,1.5
			c0.565,0.014,1.411,0.22,1.473,0.917c0.064,0.728-0.815,0.972-1.383,1.01c-1.349,0.09-1.828-1.751-0.34-1.844
			C84.952,13.857,84.958,12.357,83.992,12.417L83.992,12.417z"/>
	</g>
</g>
<g>
	<g>
		<path fill="#103C54" d="M58.657,12.417c-1.374,0.085-2.531,1.025-2.443,2.489c0.088,1.47,1.389,2.369,2.783,2.354
			c1.436-0.016,2.908-0.951,2.883-2.51c-0.025-1.57-1.587-2.383-2.973-2.417c-0.968-0.023-0.965,1.477,0,1.5
			c0.565,0.014,1.411,0.22,1.473,0.917c0.064,0.728-0.815,0.972-1.383,1.01c-1.349,0.09-1.828-1.751-0.34-1.844
			C59.617,13.857,59.623,12.357,58.657,12.417L58.657,12.417z"/>
	</g>
</g>
<g>
	<g>
		<path fill="#103C54" d="M33.322,12.417c-1.374,0.085-2.531,1.025-2.443,2.489c0.088,1.47,1.389,2.369,2.783,2.354
			c1.436-0.016,2.908-0.951,2.883-2.51c-0.025-1.57-1.587-2.383-2.973-2.417c-0.968-0.023-0.966,1.477,0,1.5
			c0.565,0.014,1.411,0.22,1.473,0.917c0.064,0.728-0.815,0.972-1.383,1.01c-1.349,0.09-1.828-1.751-0.34-1.844
			C34.282,13.857,34.288,12.357,33.322,12.417L33.322,12.417z"/>
	</g>
</g>
<g>
	<g>
		<path fill="#103C54" d="M134.662,12.417c-1.373,0.085-2.53,1.025-2.442,2.489c0.088,1.47,1.389,2.369,2.782,2.354
			c1.437-0.016,2.908-0.951,2.883-2.51c-0.025-1.57-1.587-2.383-2.973-2.417c-0.968-0.023-0.966,1.477,0,1.5
			c0.564,0.014,1.411,0.22,1.473,0.917c0.064,0.728-0.814,0.972-1.383,1.01c-1.349,0.09-1.828-1.751-0.34-1.844
			C135.623,13.857,135.629,12.357,134.662,12.417L134.662,12.417z"/>
	</g>
</g>
<g>
	<g>
		<path fill="#103C54" d="M185.333,12.417c-1.373,0.085-2.53,1.025-2.442,2.489c0.088,1.47,1.389,2.369,2.782,2.354
			c1.437-0.016,2.908-0.951,2.883-2.51c-0.025-1.57-1.587-2.383-2.973-2.417c-0.968-0.023-0.966,1.477,0,1.5
			c0.564,0.014,1.411,0.22,1.473,0.917c0.064,0.728-0.814,0.972-1.383,1.01c-1.349,0.09-1.828-1.751-0.34-1.844
			C186.294,13.857,186.3,12.357,185.333,12.417L185.333,12.417z"/>
	</g>
</g>
</svg>
