<?xml version="1.0" encoding="utf-8"?>
<!-- Generator: Adobe Illustrator 16.0.0, SVG Export Plug-In . SVG Version: 6.00 Build 0)  -->
<!DOCTYPE svg PUBLIC "-//W3C//DTD SVG 1.1//EN" "http://www.w3.org/Graphics/SVG/1.1/DTD/svg11.dtd">
<svg version="1.1" id="Layer_1" xmlns="http://www.w3.org/2000/svg" xmlns:xlink="http://www.w3.org/1999/xlink" x="0px" y="0px"
	 width="200px" height="30px" viewBox="0 0 200 30" enable-background="new 0 0 200 30" xml:space="preserve">
<g>
	<g>
		<g>
			<path fill="#103C54" d="M111.765,17.526c4.109,2.137,10.54,1.635,14.635-0.463c3.588-1.838,3.39-6.61,0.293-8.988
				c-3.497-2.687-8.459-2.245-12.23-0.394c-3.343,1.642-5.676,6.658-2.849,9.728c0.656,0.713,1.715-0.351,1.061-1.061
				c-3.011-3.27,1.426-7.086,4.203-8.064c2.563-0.904,5.588-0.85,8.026,0.372c1.716,0.859,2.505,2.597,2.696,4.422
				c0.228,2.183-2.23,2.854-3.824,3.309c-3.547,1.013-7.856,1.611-11.253-0.155C111.665,15.786,110.906,17.08,111.765,17.526
				L111.765,17.526z"/>
		</g>
	</g>
	<g>
		<g>
			<path fill="#103C54" d="M114.648,18.745c0.813,3.142,2.618,5.243,6.099,4.753c3.053-0.43,6.58-2.509,5.545-6.057
				c-0.271-0.927-1.719-0.532-1.447,0.398c0.826,2.827-2.622,4.05-4.835,4.228c-2.457,0.198-3.379-1.65-3.914-3.721
				C115.854,17.411,114.406,17.808,114.648,18.745L114.648,18.745z"/>
		</g>
	</g>
	<g>
		<g>
			<path fill="#103C54" d="M118.262,19.663c0.073,0.304,0.146,0.607,0.22,0.911c0.091,0.376,0.669,0.216,0.578-0.16
				c-0.073-0.304-0.146-0.607-0.22-0.911C118.749,19.127,118.171,19.287,118.262,19.663L118.262,19.663z"/>
		</g>
	</g>
	<g>
		<g>
			<path fill="#103C54" d="M121.876,19.181c0.058,0.243,0.116,0.486,0.175,0.729c0.09,0.376,0.669,0.216,0.578-0.16
				c-0.059-0.243-0.117-0.486-0.175-0.729C122.365,18.645,121.787,18.804,121.876,19.181L121.876,19.181z"/>
		</g>
	</g>
	<g>
		<g>
			<path fill="#103C54" d="M113.766,10.408c0.75,1.508-0.779,2.42-2.104,2.559c-0.381,0.039-0.385,0.64,0,0.6
				c1.809-0.188,3.594-1.507,2.621-3.461C114.111,9.759,113.594,10.063,113.766,10.408L113.766,10.408z"/>
		</g>
	</g>
	<g>
		<g>
			<path fill="#103C54" d="M117.245,17.622c-0.815-1.406,4.563-4.056,5.225-0.897c0.079,0.378,0.657,0.218,0.578-0.16
				c-0.808-3.858-7.703-1.021-6.32,1.36C116.921,18.26,117.439,17.957,117.245,17.622L117.245,17.622z"/>
		</g>
	</g>
	<g>
		<g>
			<path fill="#103C54" d="M118.623,9.453c-0.604,0.859-0.239,1.789,0.552,2.364c0.884,0.643,1.984,0.514,2.77-0.195
				c0.735-0.664,0.411-1.563-0.292-2.075c-0.821-0.6-2.03-0.65-2.922-0.201c-0.346,0.174-0.042,0.691,0.303,0.518
				c0.612-0.309,1.346-0.271,1.965,0.002c0.5,0.219,1.046,0.719,0.599,1.254c-0.504,0.604-1.279,0.638-1.937,0.293
				c-0.655-0.344-0.969-1.018-0.52-1.656C119.364,9.438,118.844,9.14,118.623,9.453L118.623,9.453z"/>
		</g>
	</g>
	<g>
		<g>
			<path fill="#103C54" d="M125.796,9.321c-0.902,0.626-0.96,1.864-0.644,2.827c0.37,1.125,1.386,1.735,2.538,1.438
				c0.374-0.097,0.215-0.675-0.16-0.578c-0.92,0.237-1.561-0.292-1.841-1.146c-0.209-0.636-0.199-1.602,0.409-2.023
				C126.414,9.62,126.114,9.1,125.796,9.321L125.796,9.321z"/>
		</g>
	</g>
</g>
<g>
	<g>
		<g>
			<path fill="#103C54" d="M18.737,7.916c-7.582,1.28-5.778,12.311,0.408,14.326c4.454,1.451,8.194-2.894,8.77-6.905
				c0.693-4.823-4.932-7.59-8.979-7.447c-0.964,0.034-0.968,1.534,0,1.5c3.86-0.136,8.356,2.359,7.296,6.775
				c-0.817,3.408-4.356,5.91-7.67,4.226c-4.289-2.179-4.848-10.113,0.573-11.027C20.088,9.202,19.683,7.757,18.737,7.916
				L18.737,7.916z"/>
		</g>
	</g>
	<g>
		<g>
			<path fill="#103C54" d="M21.832,15.491c-1.538-0.633-2.522,1.76-1.063,2.452c1.375,0.652,2.552-1.754,1.135-2.422
				c-0.348-0.164-0.652,0.353-0.303,0.518c0.714,0.337,0.212,1.548-0.511,1.388c-0.862-0.192-0.394-1.759,0.583-1.357
				C22.031,16.217,22.185,15.636,21.832,15.491L21.832,15.491z"/>
		</g>
	</g>
	<g>
		<g>
			<path fill="#103C54" d="M22.265,14.808c-1.083-0.459-2.17-0.107-2.704,0.965c-0.513,1.031-0.168,2.378,0.893,2.899
				C22.619,19.736,24.541,15.846,22.265,14.808c-0.349-0.159-0.654,0.357-0.303,0.518c1.558,0.711,0.379,3.301-1.156,2.847
				c-1.753-0.52-0.69-3.629,1.156-2.847C22.314,15.475,22.62,14.958,22.265,14.808L22.265,14.808z"/>
		</g>
	</g>
	<g>
		<g>
			<path fill="#103C54" d="M26.569,16.283c-0.775,0.36-1.5,0.428-2.338,0.438c0.096,0.126,0.193,0.253,0.289,0.38
				c0.525-1.931-0.66-3.279-2.44-3.971c-1.811-0.704-3.297,0.903-3.708,2.504c-0.097,0.375,0.482,0.534,0.578,0.16
				c0.362-1.409,1.406-2.466,2.971-2.086c1.454,0.354,2.416,1.786,2.022,3.232c-0.051,0.187,0.093,0.383,0.289,0.38
				c0.953-0.011,1.773-0.115,2.641-0.52C27.222,16.638,26.917,16.121,26.569,16.283L26.569,16.283z"/>
		</g>
	</g>
	<g>
		<g>
			<path fill="#103C54" d="M18.738,15.523c-0.675-0.254-1.387-0.39-2.036-0.712c-0.584-0.29-1.017-0.667-1.537-1.043
				c-0.314-0.228-0.613,0.293-0.303,0.518c0.526,0.382,0.95,0.734,1.537,1.044c0.687,0.362,1.458,0.5,2.18,0.771
				C18.942,16.238,19.097,15.658,18.738,15.523L18.738,15.523z"/>
		</g>
	</g>
	<g>
		<g>
			<path fill="#103C54" d="M25.458,18.287c-0.734,0.159-1.648,0.148-2.302,0.547c-0.598,0.363-0.222,0.438-1.214,0.833
				c-1.049,0.417-3.147-0.223-3.466-1.449c-0.092-0.352-0.022-0.896-0.401-1.118c-0.782-0.459-2.149-0.333-2.588-1.293
				c-0.161-0.352-0.678-0.047-0.519,0.303c0.327,0.715,1.145,0.942,1.838,1.189c1.263,0.449,0.694,1.38,1.604,2.053
				c2.686,1.987,4.504,0.103,7.208-0.486C25.995,18.783,25.834,18.205,25.458,18.287L25.458,18.287z"/>
		</g>
	</g>
</g>
<g>
	<g>
		<g>
			<path fill="#103C54" d="M65.466,6.184c-1.963,4.247-3.616,9.271-4.517,13.854c-0.186,0.944,1.26,1.348,1.446,0.398
				c0.873-4.439,2.464-9.381,4.366-13.494C67.165,6.069,65.872,5.307,65.466,6.184L65.466,6.184z"/>
		</g>
	</g>
	<g>
		<g>
			<path fill="#103C54" d="M61.317,21.021c1.662,0.825,3.415,1.164,5.218,1.552c2.564,0.551,4.986,1.681,7.476,2.481
				c0.923,0.297,1.315-1.152,0.398-1.447c-1.946-0.626-3.845-1.384-5.787-2.02c-2.172-0.711-4.479-0.835-6.549-1.861
				C61.211,19.298,60.451,20.592,61.317,21.021L61.317,21.021z"/>
		</g>
	</g>
	<g>
		<g>
			<path fill="#103C54" d="M75.038,24.765c1.091-1.801,1.626-4.085,2.362-6.055c0.52-1.392,0.303-2.675,1.021-4.103
				c0.556-1.106,0.856-2.296,1.199-3.48c0.27-0.932-1.178-1.326-1.446-0.398c-0.583,2.015-1.711,3.875-1.918,5.96
				c-0.217,2.178-1.361,5.42-2.512,7.318C73.24,24.837,74.538,25.59,75.038,24.765L75.038,24.765z"/>
		</g>
	</g>
	<g>
		<g>
			<path fill="#103C54" d="M79.031,9.988c-4.136-1.266-8.596-2.289-12.539-4.073c-0.874-0.396-1.637,0.896-0.757,1.295
				c4.073,1.843,8.626,2.918,12.897,4.226C79.56,11.719,79.954,10.271,79.031,9.988L79.031,9.988z"/>
		</g>
	</g>
	<g>
		<g>
			<path fill="#103C54" d="M66.698,8.972c-0.792,2.59-1.583,5.18-2.375,7.77c-0.114,0.371,0.465,0.528,0.578,0.16
				c0.792-2.59,1.583-5.18,2.375-7.77C67.39,8.761,66.811,8.604,66.698,8.972L66.698,8.972z"/>
		</g>
	</g>
	<g>
		<g>
			<path fill="#103C54" d="M64.537,17.309c3.005,0.947,5.91,2.206,9.053,2.637c0.378,0.052,0.541-0.526,0.159-0.578
				c-3.143-0.432-6.047-1.689-9.053-2.637C64.326,16.613,64.169,17.193,64.537,17.309L64.537,17.309z"/>
		</g>
	</g>
	<g>
		<g>
			<path fill="#103C54" d="M76.052,11.75c-1.166,2.378-1.738,4.965-2.493,7.488c-0.111,0.372,0.468,0.529,0.578,0.16
				c0.74-2.472,1.292-5.017,2.433-7.346C76.739,11.707,76.222,11.402,76.052,11.75L76.052,11.75z"/>
		</g>
	</g>
	<g>
		<g>
			<path fill="#103C54" d="M76.39,11.612c-3.029-0.922-6.073-1.796-9.103-2.717c-0.371-0.113-0.528,0.466-0.159,0.578
				c3.029,0.922,6.073,1.795,9.103,2.717C76.602,12.304,76.759,11.725,76.39,11.612L76.39,11.612z"/>
		</g>
	</g>
</g>
<g>
	<g>
		<g>
			<path fill="#103C54" d="M171.866,3.425c0.346,2.203,0.691,4.406,1.036,6.61c0.22,1.398,0.439,2.797,0.658,4.196
				c0.185,1.174-0.093,2.401,0.52,1.74c-3.14,3.396-6.279,6.794-9.419,10.191c0.418,0.11,0.836,0.221,1.254,0.331
				c-0.602-4.464-1.202-8.927-1.803-13.39c0.122,0.91,0.297,0.105,1.007-0.666c1.132-1.228,2.264-2.456,3.396-3.684
				c1.535-1.667,3.07-3.333,4.605-4.999c0.654-0.71-0.404-1.773-1.061-1.061c-1.744,1.893-3.488,3.785-5.232,5.679
				c-1.063,1.153-3.739,3.073-4.173,4.649c-0.457,1.663,0.561,4.558,0.784,6.218c0.343,2.551,0.687,5.102,1.029,7.651
				c0.076,0.566,0.905,0.709,1.254,0.331c2.999-3.245,7.361-6.598,9.588-10.399c0.647-1.105-0.504-4.274-0.681-5.405
				c-0.438-2.798-0.877-5.595-1.315-8.393C173.164,2.073,171.719,2.479,171.866,3.425z"/>
		</g>
	</g>
	<g>
		<g>
			<path fill="#103C54" d="M165.45,26.845c2.156-3.731,4.313-7.462,6.469-11.193c0.69-1.194,0.335-4.031,0.437-5.371
				c0.178-2.352,0.356-4.703,0.534-7.055c0.024-0.313-0.41-0.388-0.559-0.151c-1.102,1.747-2.202,3.495-3.303,5.242
				c-0.972,1.542-2.846,3.541-3.333,5.313c-1.085,3.944-0.554,8.968-0.804,13.063c-0.023,0.387,0.576,0.385,0.6,0
				c0.258-4.218,0.516-8.435,0.772-12.652c0.086-1.404,2.058-3.478,2.789-4.638c1.249-1.983,2.499-3.967,3.748-5.95
				c-0.414-0.293-0.593-0.254-0.537,0.116c-0.04,0.524-0.079,1.05-0.119,1.574c-0.106,1.406-0.213,2.813-0.319,4.219
				c-0.112,1.481,0.285,4.759-0.467,6.06c-2.142,3.707-4.284,7.413-6.426,11.12C164.738,26.878,165.257,27.18,165.45,26.845z"/>
		</g>
	</g>
	<g>
		<g>
			<path fill="#103C54" d="M175.07,16.261c-3.839-1.211-7.678-2.422-11.516-3.632c-0.37-0.117-0.527,0.462-0.16,0.578
				c3.839,1.211,7.678,2.422,11.516,3.632C175.28,16.956,175.438,16.376,175.07,16.261L175.07,16.261z"/>
		</g>
	</g>
</g>
</svg>
