<?xml version="1.0" encoding="utf-8"?>
<!-- Generator: Adobe Illustrator 16.0.0, SVG Export Plug-In . SVG Version: 6.00 Build 0)  -->
<!DOCTYPE svg PUBLIC "-//W3C//DTD SVG 1.1//EN" "http://www.w3.org/Graphics/SVG/1.1/DTD/svg11.dtd">
<svg version="1.1" id="Layer_1" xmlns="http://www.w3.org/2000/svg" xmlns:xlink="http://www.w3.org/1999/xlink" x="0px" y="0px"
	 width="200px" height="30px" viewBox="0 0 200 30" enable-background="new 0 0 200 30" xml:space="preserve">
<g>
	<g>
		<path fill="#103C54" d="M20.712,20.981c2.458-1.523,4.166-3.709,6.064-5.855c3.674-4.151,8.709-5.806,14.071-4.513
			c3.728,0.899,6.89,4.059,10.011,6.116c2.915,1.922,6.14,3.356,9.464,4.39c7.028,2.186,12.054-1.455,17.424-5.559
			c6.458-4.936,14.66-6.133,22.614-5.598c3.796,0.256,7.449,1.411,10.723,3.322c1.912,1.117,3.625,2.838,4.824,4.692
			c0.389,0.658,0.705,1.352,0.947,2.079c0.77,1.715-0.414,2.266-3.553,1.653c-4.091-3.347,1.342-7.101,4.002-8.045
			c2.117-0.752,4.429-0.881,6.65-0.913c4.934-0.071,8.825,2.403,13.04,4.573c5.245,2.701,13.029,5.475,18.823,2.804
			c4.216-1.943,8.248-4.486,12.314-6.735c3.728-2.062,6.413-3.694,10.824-1.744c3.141,1.388,5.602,3.464,5.795,7.187
			c0.05,0.962,1.55,0.967,1.5,0c-0.196-3.789-2.095-5.927-5.261-7.831c-4.245-2.552-7.868-2.204-12.034,0.183
			c-7.302,4.183-14.104,9.318-22.879,7.902c-6.067-0.979-10.845-5.127-16.536-7.042c-4.846-1.63-17.969-1.53-18.739,5.656
			c-0.279,2.607,0.697,5.531,3.5,6.356c1.967,0.578,3.928,0.65,4.375-1.721c1.242-6.591-8.025-11.491-12.904-12.947
			C97.032,6.781,85.616,8.3,78.11,13.439c-2.308,1.581-4.419,3.408-6.776,4.926c-3.861,2.484-7.887,2.155-12.072,0.854
			c-5.84-1.816-10.183-6.093-15.408-8.997c-3.842-2.135-8.484-2.047-12.449-0.384c-4.893,2.052-7.1,7.151-11.45,9.847
			C19.135,20.194,19.887,21.492,20.712,20.981L20.712,20.981z"/>
	</g>
</g>
<g>
	<g>
		<path fill="#103C54" d="M15.163,19.534c2.21-2.266,8.613,5.722,2.48,6.318c-0.954,0.093-0.963,1.594,0,1.5
			c9.06-0.882,0.566-13.089-3.541-8.879C13.427,19.166,14.487,20.228,15.163,19.534L15.163,19.534z"/>
	</g>
</g>
<g>
	<g>
		<path fill="#103C54" d="M14.219,20.157c0.951,0.321,1.54,1.63,1.937,2.459c0.22,0.461,1.176,2.663,0.585,3.111
			c-0.667,0.506-3.737-5.063-2.123-5.713c0.885-0.357,0.499-1.809-0.398-1.447c-1.967,0.793-1.496,3.175-0.939,4.783
			c0.506,1.464,1.633,4.088,3.56,3.881c3.772-0.404-0.087-7.8-2.222-8.521C13.698,18.399,13.307,19.849,14.219,20.157L14.219,20.157
			z"/>
	</g>
</g>
<g>
	<g>
		<path fill="#103C54" d="M14.697,21.582c-0.872,0.183-1.65,0.636-2.438,1.034c-0.345,0.175-0.042,0.692,0.303,0.518
			c0.743-0.376,1.471-0.801,2.294-0.974C15.235,22.081,15.074,21.503,14.697,21.582L14.697,21.582z"/>
	</g>
</g>
<g>
	<g>
		<path fill="#103C54" d="M15.995,24.438c-0.946,0.104-1.782,0.613-2.724,0.717c-0.38,0.041-0.384,0.642,0,0.6
			c0.947-0.104,1.782-0.612,2.724-0.717C16.375,24.996,16.379,24.396,15.995,24.438L15.995,24.438z"/>
	</g>
</g>
<g>
	<g>
		<path fill="#103C54" d="M181.762,20.974c2.479-0.6,4.685-1.924,7.188-2.438c0.947-0.195,0.546-1.641-0.398-1.447
			c-2.504,0.516-4.708,1.839-7.188,2.438C180.423,19.754,180.822,21.2,181.762,20.974L181.762,20.974z"/>
	</g>
</g>
<g>
	<g>
		<path fill="#103C54" d="M190.166,18.118c0.614-1.358,1.014-0.969,1.68,0.144c0.563,0.938,0.934,1.993,1.26,3.032
			c0.299,0.953,0.502,1.974,0.582,2.968c0.111,1.383-1.662,1.294-2.521,0.87c-0.693-0.342-1.259-1.025-1.821-1.544
			c-0.71-0.654-1.773,0.403-1.061,1.061c1.678,1.548,3.759,3.237,6.054,1.645c1.525-1.059,0.691-3.692,0.291-5.133
			c-0.475-1.708-1.177-3.59-2.405-4.902c-1.31-1.397-2.728-0.281-3.354,1.103C188.476,18.234,189.768,18.998,190.166,18.118
			L190.166,18.118z"/>
	</g>
</g>
<g>
	<g>
		<path fill="#103C54" d="M188.335,23.181c-1.318,0.299-2.527,1.017-3.876,1.184c-0.947,0.117-0.958,1.618,0,1.5
			c1.503-0.186,2.813-0.906,4.274-1.236C189.677,24.414,189.276,22.968,188.335,23.181L188.335,23.181z"/>
	</g>
</g>
<g>
	<g>
		<path fill="#103C54" d="M181.897,19.984c-0.679-0.644-1.291-1.32-2.293-1.239c-0.965,0.078-1.382,0.985-1.632,1.788
			c-0.738,2.378-1.882,4.852-0.746,7.318c1.842,4.001,6.169,0.743,7.253-2.04c0.351-0.902-1.1-1.29-1.447-0.398
			c-0.49,1.261-2.869,4.113-4.217,2.251c-0.959-1.323-0.572-3.201-0.104-4.619c0.199-0.604,0.461-1.167,0.62-1.783
			c0.265-1.021,0.844-0.843,1.505-0.217C181.538,21.71,182.601,20.65,181.897,19.984L181.897,19.984z"/>
	</g>
</g>
<g>
	<g>
		<path fill="#103C54" d="M188.955,19.163c-0.693,0.824,0.399,1.898,1.28,1.429c0.408-0.217,0.574-0.744,0.244-1.104
			c-0.332-0.36-0.83-0.518-1.309-0.444c-0.381,0.058-0.219,0.636,0.16,0.578c0.208-0.031,0.965,0.188,0.602,0.452
			c-0.247,0.179-0.789-0.207-0.554-0.487C189.626,19.293,189.204,18.866,188.955,19.163L188.955,19.163z"/>
	</g>
</g>
<g>
	<g>
		<path fill="#103C54" d="M191.122,20.163c-0.53,0.659,0.15,1.562,0.939,1.237c0.938-0.385,0.415-1.625-0.478-1.575
			c-0.385,0.021-0.387,0.621,0,0.6c0.15-0.008,0.727,0.229,0.214,0.439c-0.136,0.057-0.381-0.116-0.252-0.277
			C191.786,20.288,191.364,19.861,191.122,20.163L191.122,20.163z"/>
	</g>
</g>
<g>
	<g>
		<path fill="#103C54" d="M189.503,21.628c-0.296,0.983,1.129,1.317,1.645,0.619c0.684-0.926-0.874-1.653-1.525-0.959
			c-0.265,0.281,0.158,0.707,0.424,0.424c0.147-0.157,0.679-0.201,0.624,0.125c-0.055,0.322-0.679,0.251-0.589-0.049
			C190.193,21.416,189.613,21.259,189.503,21.628L189.503,21.628z"/>
	</g>
</g>
<g>
	<g>
		<path fill="#103C54" d="M188.075,20.516c-0.562,0.752,0.181,1.737,1.037,1.231c0.749-0.442,0.274-1.541-0.528-1.464
			c-0.382,0.036-0.385,0.637,0,0.6c0.222-0.021,0.413,0.124,0.228,0.34c-0.073,0.087-0.278,0.111-0.329-0.021
			c-0.053-0.137,0.032-0.278,0.11-0.383C188.824,20.508,188.304,20.209,188.075,20.516L188.075,20.516z"/>
	</g>
</g>
<g>
	<g>
		<path fill="#103C54" d="M181.551,22.766c-0.066-0.131-0.092-0.274-0.103-0.42c-0.016-0.204,0.088-0.328,0.174-0.103
			c0.09,0.237,0.132,0.474,0.292,0.677c0.239,0.304,0.661-0.124,0.424-0.424c-0.251-0.318-0.209-1.174-0.873-0.996
			c-0.726,0.193-0.718,1.005-0.432,1.568C181.208,23.413,181.726,23.109,181.551,22.766L181.551,22.766z"/>
	</g>
</g>
<g>
	<g>
		<path fill="#103C54" d="M182.247,23.081c0.282-0.075,0.521-0.253,0.8-0.34c0.062,0.021,0.071,0.08,0.029,0.176
			c0.009,0.195-0.197,0.268-0.336,0.324c-0.172,0.07-0.347,0.131-0.516,0.208c-0.352,0.16-0.047,0.678,0.303,0.518
			c0.339-0.154,0.705-0.229,0.963-0.515c0.22-0.244,0.263-0.741,0.09-1.022c-0.384-0.625-1.008-0.057-1.493,0.073
			C181.714,22.603,181.872,23.182,182.247,23.081L182.247,23.081z"/>
	</g>
</g>
<g>
	<g>
		<path fill="#103C54" d="M181.92,23.788c0.087,0.28,0.206,0.556,0.218,0.854c0.009,0.242-0.313-0.215-0.32-0.229
			c-0.063-0.117-0.105-0.243-0.152-0.367c-0.134-0.358-0.714-0.203-0.578,0.16c0.195,0.523,0.495,1.271,1.188,1.094
			c0.763-0.195,0.372-1.192,0.224-1.671C182.385,23.26,181.805,23.417,181.92,23.788L181.92,23.788z"/>
	</g>
</g>
<g>
	<g>
		<path fill="#103C54" d="M181.254,23.711c-0.442,0.065-0.839,0.28-1.295,0.239c0.097,0.073,0.192,0.146,0.289,0.22
			c-0.171-0.643,0.588-0.708,1.041-0.881c0.357-0.136,0.202-0.716-0.16-0.578c-0.807,0.307-1.747,0.535-1.459,1.619
			c0.036,0.137,0.155,0.208,0.289,0.22c0.515,0.046,0.956-0.187,1.455-0.261C181.795,24.232,181.633,23.655,181.254,23.711
			L181.254,23.711z"/>
	</g>
</g>
<g>
	<g>
		<path fill="#103C54" d="M183.045,20.33c0.145,0.422,0.281,1.052,0.763,1.223c0.563,0.201,1.171-0.11,1.703-0.294
			c0.663-0.23,1.289-0.297,1.858-0.744c0.422-0.331,0.104-0.882-0.038-1.262c-0.134-0.358-0.714-0.203-0.578,0.16
			c0.047,0.126,0.302,0.556,0.192,0.678c-0.321,0.357-0.996,0.443-1.441,0.537c-0.3,0.063-0.6,0.206-0.893,0.299
			c-0.637,0.202-0.81-0.237-0.988-0.757C183.498,19.807,182.919,19.963,183.045,20.33L183.045,20.33z"/>
	</g>
</g>
<g>
	<g>
		<path fill="#103C54" d="M178.247,24.92c0.32,0.354,0.721,0.622,0.78,1.128c0.077,0.66,0.007,1.37,0.007,2.035
			c0,0.387,0.6,0.387,0.6,0c0-0.792,0.104-1.658-0.071-2.435c-0.107-0.478-0.583-0.812-0.892-1.152
			C178.411,24.208,177.988,24.634,178.247,24.92L178.247,24.92z"/>
	</g>
</g>
<g>
	<g>
		<path fill="#103C54" d="M192.92,21.462c-0.219,0.711-0.953,1.328-0.694,2.125c0.21,0.648,0.738,1.327,1.229,1.792
			c0.28,0.267,0.705-0.157,0.424-0.424c-0.435-0.412-0.786-0.938-1.051-1.472c-0.267-0.536,0.51-1.339,0.67-1.861
			C193.612,21.251,193.033,21.094,192.92,21.462L192.92,21.462z"/>
	</g>
</g>
</svg>
